<svg width="50" height="50" viewBox="0 0 50 50" fill="none" xmlns="http://www.w3.org/2000/svg">
<rect x="0.5" y="0.5" width="49" height="49" rx="24.5" stroke="white"/>
<path d="M17.672 16.864C18.872 16.864 19.848 17.144 20.6 17.704C21.368 18.248 21.96 18.952 22.376 19.816C22.808 20.664 23.096 21.6 23.24 22.624C23.4 23.648 23.48 24.64 23.48 25.6C23.48 26.56 23.4 27.552 23.24 28.576C23.096 29.6 22.808 30.544 22.376 31.408C21.96 32.256 21.368 32.96 20.6 33.52C19.848 34.064 18.872 34.336 17.672 34.336C16.472 34.336 15.488 34.064 14.72 33.52C13.968 32.96 13.376 32.256 12.944 31.408C12.528 30.544 12.24 29.6 12.08 28.576C11.936 27.552 11.864 26.56 11.864 25.6C11.864 24.64 11.936 23.648 12.08 22.624C12.24 21.6 12.528 20.664 12.944 19.816C13.376 18.952 13.968 18.248 14.72 17.704C15.488 17.144 16.472 16.864 17.672 16.864ZM17.672 32.056C18.264 32.056 18.76 31.888 19.16 31.552C19.56 31.2 19.872 30.736 20.096 30.16C20.336 29.568 20.504 28.88 20.6 28.096C20.696 27.312 20.744 26.48 20.744 25.6C20.744 24.72 20.696 23.896 20.6 23.128C20.504 22.344 20.336 21.656 20.096 21.064C19.872 20.472 19.56 20.008 19.16 19.672C18.76 19.32 18.264 19.144 17.672 19.144C17.064 19.144 16.56 19.32 16.16 19.672C15.776 20.008 15.464 20.472 15.224 21.064C15 21.656 14.84 22.344 14.744 23.128C14.648 23.896 14.6 24.72 14.6 25.6C14.6 26.48 14.648 27.312 14.744 28.096C14.84 28.88 15 29.568 15.224 30.16C15.464 30.736 15.776 31.2 16.16 31.552C16.56 31.888 17.064 32.056 17.672 32.056ZM25.6079 19.984C26.1839 19.984 26.7439 19.936 27.2879 19.84C27.8319 19.744 28.3199 19.584 28.7519 19.36C29.1999 19.136 29.5759 18.848 29.8799 18.496C30.1999 18.144 30.4079 17.712 30.5039 17.2H32.7359V34H29.7359V22.144H25.6079V19.984Z" fill="white"/>
</svg>
