<svg width="50" height="50" viewBox="0 0 50 50" fill="none" xmlns="http://www.w3.org/2000/svg">
<rect x="0.5" y="0.5" width="49" height="49" rx="24.5" stroke="#1F3D2B"/>
<path d="M17.672 16.864C18.872 16.864 19.848 17.144 20.6 17.704C21.368 18.248 21.96 18.952 22.376 19.816C22.808 20.664 23.096 21.6 23.24 22.624C23.4 23.648 23.48 24.64 23.48 25.6C23.48 26.56 23.4 27.552 23.24 28.576C23.096 29.6 22.808 30.544 22.376 31.408C21.96 32.256 21.368 32.96 20.6 33.52C19.848 34.064 18.872 34.336 17.672 34.336C16.472 34.336 15.488 34.064 14.72 33.52C13.968 32.96 13.376 32.256 12.944 31.408C12.528 30.544 12.24 29.6 12.08 28.576C11.936 27.552 11.864 26.56 11.864 25.6C11.864 24.64 11.936 23.648 12.08 22.624C12.24 21.6 12.528 20.664 12.944 19.816C13.376 18.952 13.968 18.248 14.72 17.704C15.488 17.144 16.472 16.864 17.672 16.864ZM17.672 32.056C18.264 32.056 18.76 31.888 19.16 31.552C19.56 31.2 19.872 30.736 20.096 30.16C20.336 29.568 20.504 28.88 20.6 28.096C20.696 27.312 20.744 26.48 20.744 25.6C20.744 24.72 20.696 23.896 20.6 23.128C20.504 22.344 20.336 21.656 20.096 21.064C19.872 20.472 19.56 20.008 19.16 19.672C18.76 19.32 18.264 19.144 17.672 19.144C17.064 19.144 16.56 19.32 16.16 19.672C15.776 20.008 15.464 20.472 15.224 21.064C15 21.656 14.84 22.344 14.744 23.128C14.648 23.896 14.6 24.72 14.6 25.6C14.6 26.48 14.648 27.312 14.744 28.096C14.84 28.88 15 29.568 15.224 30.16C15.464 30.736 15.776 31.2 16.16 31.552C16.56 31.888 17.064 32.056 17.672 32.056ZM36.7439 34H25.2719C25.2879 32.608 25.6239 31.392 26.2799 30.352C26.9359 29.312 27.8319 28.408 28.9679 27.64C29.5119 27.24 30.0799 26.856 30.6719 26.488C31.2639 26.104 31.8079 25.696 32.3039 25.264C32.7999 24.832 33.2079 24.368 33.5279 23.872C33.8479 23.36 34.0159 22.776 34.0319 22.12C34.0319 21.816 33.9919 21.496 33.9119 21.16C33.8479 20.808 33.7119 20.488 33.5039 20.2C33.2959 19.896 33.0079 19.648 32.6399 19.456C32.2719 19.248 31.7919 19.144 31.1999 19.144C30.6559 19.144 30.1999 19.256 29.8319 19.48C29.4799 19.688 29.1919 19.984 28.9679 20.368C28.7599 20.736 28.5999 21.176 28.4879 21.688C28.3919 22.2 28.3359 22.752 28.3199 23.344H25.5839C25.5839 22.416 25.7039 21.56 25.9439 20.776C26.1999 19.976 26.5759 19.288 27.0719 18.712C27.5679 18.136 28.1679 17.688 28.8719 17.368C29.5919 17.032 30.4239 16.864 31.3679 16.864C32.3919 16.864 33.2479 17.032 33.9359 17.368C34.6239 17.704 35.1759 18.128 35.5919 18.64C36.0239 19.152 36.3279 19.712 36.5039 20.32C36.6799 20.912 36.7679 21.48 36.7679 22.024C36.7679 22.696 36.6639 23.304 36.4559 23.848C36.2479 24.392 35.9679 24.896 35.6159 25.36C35.2639 25.808 34.8639 26.224 34.4159 26.608C33.9679 26.992 33.5039 27.352 33.0239 27.688C32.5439 28.024 32.0639 28.344 31.5839 28.648C31.1039 28.952 30.6559 29.256 30.2399 29.56C29.8399 29.864 29.4879 30.184 29.1839 30.52C28.8799 30.84 28.6719 31.184 28.5599 31.552H36.7439V34Z" fill="#1F3D2B"/>
</svg>
