<svg width="50" height="50" viewBox="0 0 50 50" fill="none" xmlns="http://www.w3.org/2000/svg">
<rect x="0.5" y="0.5" width="49" height="49" rx="24.5" stroke="#1F3D2B"/>
<path d="M17.672 16.864C18.872 16.864 19.848 17.144 20.6 17.704C21.368 18.248 21.96 18.952 22.376 19.816C22.808 20.664 23.096 21.6 23.24 22.624C23.4 23.648 23.48 24.64 23.48 25.6C23.48 26.56 23.4 27.552 23.24 28.576C23.096 29.6 22.808 30.544 22.376 31.408C21.96 32.256 21.368 32.96 20.6 33.52C19.848 34.064 18.872 34.336 17.672 34.336C16.472 34.336 15.488 34.064 14.72 33.52C13.968 32.96 13.376 32.256 12.944 31.408C12.528 30.544 12.24 29.6 12.08 28.576C11.936 27.552 11.864 26.56 11.864 25.6C11.864 24.64 11.936 23.648 12.08 22.624C12.24 21.6 12.528 20.664 12.944 19.816C13.376 18.952 13.968 18.248 14.72 17.704C15.488 17.144 16.472 16.864 17.672 16.864ZM17.672 32.056C18.264 32.056 18.76 31.888 19.16 31.552C19.56 31.2 19.872 30.736 20.096 30.16C20.336 29.568 20.504 28.88 20.6 28.096C20.696 27.312 20.744 26.48 20.744 25.6C20.744 24.72 20.696 23.896 20.6 23.128C20.504 22.344 20.336 21.656 20.096 21.064C19.872 20.472 19.56 20.008 19.16 19.672C18.76 19.32 18.264 19.144 17.672 19.144C17.064 19.144 16.56 19.32 16.16 19.672C15.776 20.008 15.464 20.472 15.224 21.064C15 21.656 14.84 22.344 14.744 23.128C14.648 23.896 14.6 24.72 14.6 25.6C14.6 26.48 14.648 27.312 14.744 28.096C14.84 28.88 15 29.568 15.224 30.16C15.464 30.736 15.776 31.2 16.16 31.552C16.56 31.888 17.064 32.056 17.672 32.056ZM29.8079 24.16C30.2559 24.176 30.7039 24.144 31.1519 24.064C31.5999 23.984 31.9999 23.848 32.3519 23.656C32.7039 23.448 32.9839 23.168 33.1919 22.816C33.4159 22.464 33.5279 22.032 33.5279 21.52C33.5279 20.8 33.2799 20.224 32.7839 19.792C32.3039 19.36 31.6799 19.144 30.9119 19.144C30.4319 19.144 30.0159 19.24 29.6639 19.432C29.3119 19.624 29.0159 19.888 28.7759 20.224C28.5519 20.544 28.3839 20.912 28.2719 21.328C28.1599 21.728 28.1119 22.144 28.1279 22.576H25.3919C25.4239 21.76 25.5759 21.008 25.8479 20.32C26.1199 19.616 26.4879 19.008 26.9519 18.496C27.4319 17.984 28.0079 17.584 28.6799 17.296C29.3519 17.008 30.1119 16.864 30.9599 16.864C31.6159 16.864 32.2559 16.96 32.8799 17.152C33.5199 17.344 34.0879 17.624 34.5839 17.992C35.0959 18.36 35.5039 18.832 35.8079 19.408C36.1119 19.968 36.2639 20.616 36.2639 21.352C36.2639 22.2 36.0719 22.944 35.6879 23.584C35.3039 24.208 34.7039 24.664 33.8879 24.952V25C34.8479 25.192 35.5919 25.672 36.1199 26.44C36.6639 27.192 36.9359 28.112 36.9359 29.2C36.9359 30 36.7759 30.72 36.4559 31.36C36.1359 31.984 35.7039 32.52 35.1599 32.968C34.6159 33.4 33.9839 33.736 33.2639 33.976C32.5439 34.216 31.7839 34.336 30.9839 34.336C30.0079 34.336 29.1519 34.2 28.4159 33.928C27.6959 33.64 27.0879 33.24 26.5919 32.728C26.1119 32.216 25.7439 31.6 25.4879 30.88C25.2319 30.16 25.0959 29.36 25.0799 28.48H27.8159C27.7839 29.504 28.0319 30.36 28.5599 31.048C29.1039 31.72 29.9119 32.056 30.9839 32.056C31.8959 32.056 32.6559 31.8 33.2639 31.288C33.8879 30.76 34.1999 30.016 34.1999 29.056C34.1999 28.4 34.0719 27.88 33.8159 27.496C33.5599 27.112 33.2239 26.824 32.8079 26.632C32.3919 26.424 31.9199 26.296 31.3919 26.248C30.8799 26.2 30.3519 26.184 29.8079 26.2V24.16Z" fill="#1F3D2B"/>
</svg>
