<svg width="24" height="22" viewBox="0 0 24 22" fill="none" xmlns="http://www.w3.org/2000/svg">
<path d="M12.641 11.1182C12.2046 11.6273 12.241 12.3545 12.6774 12.7909C12.8956 13.0091 13.2228 13.1545 13.5501 13.1545C13.8774 13.1545 14.1683 13.0455 14.4228 12.7909L19.1865 8.02727C19.6592 7.55455 19.6592 6.79091 19.1865 6.31818C18.7501 5.88182 17.9865 5.84545 17.5137 6.28182L13.1865 2.02727C13.6592 1.51818 13.6228 0.790909 13.1501 0.354545C12.6774 -0.118182 11.8774 -0.118182 11.441 0.354545L6.71373 5.08182C6.60137 5.19396 6.51222 5.32715 6.45139 5.47379C6.39057 5.62042 6.35926 5.77761 6.35926 5.93636C6.35926 6.09511 6.39057 6.2523 6.45139 6.39894C6.51222 6.54557 6.60137 6.67877 6.71373 6.79091C7.1501 7.26364 7.91373 7.26364 8.38646 6.82727L9.65919 8.1L0.495552 16.7545C-0.158993 17.3727 -0.158994 18.3909 0.459188 19.0091C1.07737 19.6273 2.13192 19.6273 2.71373 18.9727L11.3683 9.80909L12.641 11.1182ZM18.641 6.82727C18.8228 7.00909 18.8228 7.33636 18.641 7.51818L13.8774 12.2818C13.6956 12.4636 13.3683 12.4636 13.1865 12.2818C13.0046 12.1 13.0046 11.7727 13.1865 11.5909L17.9501 6.82727C18.1319 6.60909 18.4592 6.64545 18.641 6.82727ZM7.22282 6.28182C7.04101 6.1 7.04101 5.77273 7.22282 5.59091L11.9501 0.863636C12.1319 0.681818 12.4228 0.645454 12.641 0.863636C12.8228 1.04545 12.8228 1.37273 12.641 1.55455L7.91373 6.28182C7.73191 6.46364 7.40464 6.5 7.22282 6.28182ZM11.5865 3.62727L12.7137 2.5L16.9683 6.75455L13.1501 10.6091L8.89555 6.31818L11.5865 3.62727ZM2.16828 18.5C1.84101 18.8636 1.29555 18.8636 0.968279 18.5C0.641006 18.1727 0.641006 17.6273 1.00464 17.3L10.1683 8.64545L10.8592 9.33636L2.16828 18.5ZM22.8956 20.5H22.4956V18.8273C22.4956 18.2455 22.0228 17.7727 21.441 17.7727H20.9319V17.1182C20.9319 16.5364 20.4592 16.0636 19.8774 16.0636H12.6774C12.0956 16.0636 11.6228 16.5364 11.6228 17.1182V17.7727H11.1137C10.5319 17.7727 10.0592 18.2455 10.0592 18.8273V20.5H9.65919C9.44101 20.5 9.29555 20.6455 9.29555 20.8636C9.29555 21.0818 9.44101 21.2273 9.65919 21.2273H22.9319C23.1501 21.2273 23.2956 21.0818 23.2956 20.8636C23.2956 20.6455 23.1137 20.5 22.8956 20.5ZM12.3501 17.0818C12.3501 16.9 12.4956 16.7545 12.6774 16.7545H19.841C20.0228 16.7545 20.1683 16.9 20.1683 17.0818V17.7364H12.3501V17.0818ZM10.7501 20.5V18.8273C10.7501 18.6455 10.8956 18.5 11.0774 18.5H21.4046C21.5865 18.5 21.7319 18.6455 21.7319 18.8273V20.5H10.7501Z" fill="white"/>
</svg>
