<svg width="48" height="49" viewBox="0 0 48 49" fill="none" xmlns="http://www.w3.org/2000/svg">
<g clip-path="url(#clip0_221_4193)">
<path d="M47.0625 18.5352L45.3079 21.6478L42.252 19.8737" stroke="#111E27" stroke-width="1.5" stroke-miterlimit="10" stroke-linecap="round" stroke-linejoin="round"/>
<path d="M45.1868 21.5025C43.5244 11.0735 34.5955 3.10643 23.8655 3.12209C13.2133 3.13765 4.35103 10.9958 2.56631 21.3183M0.9375 30.4646L2.69212 27.3519L5.748 29.126" stroke="#111E27" stroke-width="1.5" stroke-miterlimit="10" stroke-linecap="round" stroke-linejoin="round"/>
<path d="M2.8125 27.4972C4.47496 37.9262 13.4038 45.8932 24.1338 45.8776C34.786 45.862 43.6483 38.0039 45.433 27.6814" stroke="#111E27" stroke-width="1.5" stroke-miterlimit="10" stroke-linecap="round" stroke-linejoin="round"/>
<path d="M29.1742 37.1848C36.2097 34.3148 39.5962 26.3088 36.7382 19.3028C33.8803 12.2968 25.8601 8.94387 18.8247 11.8138C11.7893 14.6838 8.40272 22.6898 11.2607 29.6958C14.1187 36.7018 22.1388 40.0547 29.1742 37.1848Z" stroke="#111E27" stroke-width="1.5" stroke-miterlimit="10" stroke-linecap="round" stroke-linejoin="round"/>
<path d="M23.1735 30.1487C22.8729 30.1487 22.5757 30.0859 22.3009 29.9643C22.026 29.8427 21.7797 29.665 21.5776 29.4425L18.9999 26.6054C18.199 25.724 18.2643 24.3603 19.1458 23.5594C20.0272 22.7585 21.3909 22.8239 22.1916 23.7054L23.1515 24.7619L26.0374 21.4976C26.8262 20.6055 28.1887 20.5216 29.0811 21.3104C29.9733 22.0991 30.0572 23.4617 29.2683 24.354L24.789 29.4209C24.5883 29.6479 24.342 29.83 24.0662 29.9554C23.7903 30.0809 23.4912 30.1468 23.1882 30.1488L23.1735 30.1487Z" stroke="#111E27" stroke-width="1.5" stroke-miterlimit="10" stroke-linecap="round" stroke-linejoin="round"/>
</g>
<defs>
<clipPath id="clip0_221_4193">
<rect width="48" height="49" fill="white"/>
</clipPath>
</defs>
</svg>
