<svg width="40" height="40" viewBox="0 0 40 40" fill="none" xmlns="http://www.w3.org/2000/svg">
<rect width="40" height="40" rx="20" fill="white"/>
<path fill-rule="evenodd" clip-rule="evenodd" d="M16.8132 14.2302H23.1869C24.6219 14.2302 25.7937 15.4021 25.7937 16.8371V23.175C25.7937 24.61 24.6219 25.7818 23.1869 25.7818H16.8132C15.3782 25.7818 14.2183 24.61 14.2183 23.175V16.8371C14.2183 15.4022 15.3782 14.2302 16.8132 14.2302ZM19.9941 17.5068H20.018C21.3932 17.5068 22.5292 18.6428 22.5292 20.006C22.5292 21.4052 21.3932 22.5411 20.018 22.5411H19.9941C18.6189 22.5411 17.4828 21.4051 17.4828 20.006C17.4828 18.6428 18.6189 17.5068 19.9941 17.5068ZM19.9941 16.2034H20.018C22.0868 16.2034 23.8207 17.9373 23.8207 20.006C23.8207 22.1107 22.0868 23.8088 20.018 23.8088H19.9941C17.9134 23.8088 16.2153 22.1107 16.2153 20.006C16.2153 17.9373 17.9134 16.2034 19.9941 16.2034ZM23.7609 15.4739C24.1914 15.4739 24.5621 15.8327 24.5621 16.2751C24.5621 16.7056 24.1914 17.0763 23.7609 17.0763C23.2945 17.0763 22.9597 16.7056 22.9597 16.2751C22.9597 15.8326 23.2945 15.4739 23.7609 15.4739ZM16.7893 13.0344H23.2228C25.2915 13.0344 27.0016 14.7325 27.0016 16.8012V23.2108C27.0016 25.2796 25.2915 26.9776 23.2228 26.9776H16.7893C14.7205 26.9776 13.0105 25.2796 13.0105 23.2108V16.8012C13.0105 14.7325 14.7205 13.0344 16.7893 13.0344Z" fill="#1F3D2B"/>
</svg>
