<svg width="40" height="40" viewBox="0 0 40 40" fill="none" xmlns="http://www.w3.org/2000/svg">
<rect width="40" height="40" rx="20" fill="white"/>
<path fill-rule="evenodd" clip-rule="evenodd" d="M17.954 17.7985H20.3947V18.9471C20.9092 18.1933 21.7706 17.7028 22.7397 17.7028H23.4097C24.965 17.7028 26.2093 18.983 26.2093 20.5024V21.7587V23.2422V26.0777H23.7805V26.0538V25.312V21.6031C23.7446 20.6579 23.1105 19.9281 22.1654 19.9281C21.2202 19.9281 20.4306 20.6579 20.3947 21.6031V24.8334V26.0777H17.954V17.7985ZM15.2502 13.5872C16.0757 13.5872 16.7457 14.2572 16.7457 15.0827C16.7457 15.9082 16.0756 16.5782 15.2502 16.5782C14.4246 16.5782 13.7905 15.9081 13.7905 15.0827C13.7905 14.2572 14.4246 13.5872 15.2502 13.5872ZM14.0298 17.7985H16.4944V26.0777H14.0298V17.7985Z" fill="#1F3D2B"/>
</svg>
