<svg width="14" height="14" viewBox="0 0 14 14" fill="none" xmlns="http://www.w3.org/2000/svg">
<path d="M6.99979 12.3955C8.08397 12.3955 9.1258 12.2891 10.0935 12.0918C10.1185 12.0867 10.1432 12.0812 10.1678 12.0762C11.2729 11.8512 12.0098 11.7016 12.6443 10.8857C13.272 10.0786 13.2708 9.142 13.2703 7.69238V6.30762C13.2708 4.858 13.272 3.92136 12.6443 3.11426C12.0098 2.29838 11.2729 2.14877 10.1678 1.92383C10.1432 1.91883 10.1185 1.91328 10.0935 1.9082C9.1258 1.71093 8.08397 1.60449 6.99979 1.60449C5.91564 1.6045 4.87374 1.71094 3.90604 1.9082C3.88118 1.91327 3.85631 1.91884 3.83182 1.92383C2.72689 2.14873 1.99072 2.29864 1.35623 3.11426C0.728462 3.9214 0.728736 4.85792 0.729279 6.30762L0.729279 7.69238C0.728736 9.14208 0.728462 10.0786 1.35623 10.8857C1.99072 11.7014 2.72689 11.8513 3.83182 12.0762C3.85631 12.0812 3.88118 12.0867 3.90604 12.0918C4.87374 12.2891 5.91564 12.3955 6.99979 12.3955ZM6.99979 11.5205C5.97271 11.5205 4.98946 11.4196 4.08084 11.2344C2.88406 10.9904 2.46728 10.8893 2.04666 10.3486C1.62377 9.80491 1.60428 9.19424 1.60428 7.5625L1.60428 6.4375C1.60428 4.80576 1.62377 4.19509 2.04666 3.65137C2.46728 3.11065 2.88406 3.00958 4.08084 2.76563C4.98946 2.58041 5.97271 2.4795 6.99979 2.47949C8.0269 2.47949 9.01008 2.5804 9.91873 2.76563C11.1156 3.0096 11.5323 3.11072 11.9529 3.65137C12.3758 4.19509 12.3953 4.80576 12.3953 6.4375V7.5625C12.3953 9.19424 12.3758 9.80491 11.9529 10.3486C11.5323 10.8893 11.1156 10.9904 9.91873 11.2344C9.01008 11.4196 8.0269 11.5205 6.99979 11.5205ZM5.82303 9.44238C6.16612 9.5323 6.5032 9.44561 6.83182 9.30957C7.15562 9.17548 7.54918 8.95836 8.03006 8.69336L8.07791 8.66699C8.51796 8.42452 8.88179 8.22464 9.14334 8.03906C9.40535 7.85315 9.65383 7.62209 9.73612 7.28613C9.78217 7.09779 9.78217 6.90221 9.73612 6.71387C9.65382 6.3779 9.40535 6.14685 9.14334 5.96094C8.88179 5.77536 8.51796 5.57548 8.07791 5.33301L8.03006 5.30664C7.54918 5.04164 7.15561 4.82452 6.83182 4.69043C6.5032 4.55439 6.16611 4.4677 5.82303 4.55762C5.62808 4.60873 5.44524 4.69973 5.28885 4.82617C5.00169 5.05834 4.89979 5.39059 4.85526 5.72559C4.81219 6.04959 4.81227 6.46871 4.81229 6.96875V7.03125C4.81227 7.53129 4.8122 7.95041 4.85526 8.27441C4.89979 8.6094 5.00171 8.94166 5.28885 9.17383C5.44524 9.30027 5.62808 9.39127 5.82303 9.44238ZM6.04471 8.5957C5.96501 8.57477 5.89472 8.53944 5.83865 8.49414C5.812 8.47259 5.75636 8.41433 5.72244 8.15918C5.68797 7.89978 5.68729 7.53949 5.68729 7C5.68729 6.4605 5.68796 6.10022 5.72244 5.84082C5.75636 5.58567 5.812 5.52741 5.83865 5.50586C5.89472 5.46057 5.96502 5.42523 6.04471 5.4043C6.10727 5.3879 6.22416 5.38569 6.49783 5.49902C6.77111 5.61223 7.12156 5.80487 7.63162 6.08594C8.10179 6.34502 8.42059 6.52163 8.63651 6.6748C8.85672 6.83105 8.88224 6.90447 8.88651 6.92188C8.8991 6.97351 8.89909 7.02649 8.88651 7.07813C8.88224 7.09553 8.85672 7.16895 8.63651 7.3252C8.42059 7.47837 8.10179 7.65498 7.63162 7.91406C7.12157 8.19512 6.7711 8.38777 6.49783 8.50098C6.22416 8.61431 6.10727 8.6121 6.04471 8.5957Z" fill="white"/>
</svg>
