<svg width="16" height="16" viewBox="0 0 16 16" fill="none" xmlns="http://www.w3.org/2000/svg">
<path d="M8.03711 14.834C9.49758 14.834 10.6454 14.8333 11.541 14.7129C12.4586 14.5895 13.1867 14.3318 13.7588 13.7598C14.3308 13.1877 14.5885 12.4596 14.7119 11.542C14.8323 10.6464 14.833 9.49856 14.833 8.03809V7.96191C14.833 6.50158 14.8323 5.35454 14.7119 4.45898C14.5885 3.54133 14.3308 2.8133 13.7588 2.24121C13.1867 1.66914 12.4586 1.41052 11.541 1.28711C10.6454 1.1667 9.49758 1.16698 8.03711 1.16699H7.96094C6.50062 1.16698 5.35356 1.16671 4.45801 1.28711C3.54024 1.4105 2.81237 1.66908 2.24023 2.24121C1.6681 2.81334 1.40952 3.54121 1.28613 4.45898C1.16573 5.35453 1.16601 6.50159 1.16602 7.96191V8.03809C1.16601 9.49856 1.16572 10.6464 1.28613 11.542C1.40954 12.4596 1.66817 13.1877 2.24023 13.7598C2.81233 14.3318 3.54036 14.5895 4.45801 14.7129C5.35356 14.8333 6.50061 14.834 7.96094 14.834H8.03711ZM7.99902 13.834C6.49228 13.834 5.41203 13.8331 4.59082 13.7227C3.78429 13.6142 3.30256 13.4079 2.94727 13.0527C2.5919 12.6974 2.38583 12.2151 2.27734 11.4082C2.16696 10.587 2.16602 9.50679 2.16602 8C2.16602 6.49325 2.16694 5.413 2.27734 4.5918C2.38584 3.78517 2.59197 3.30354 2.94727 2.94824C3.30257 2.59294 3.7842 2.38682 4.59082 2.27832C5.41203 2.16791 6.49228 2.16699 7.99902 2.16699C9.50581 2.16699 10.586 2.16793 11.4072 2.27832C12.2141 2.3868 12.6964 2.59288 13.0518 2.94824C13.407 3.30353 13.6132 3.78527 13.7217 4.5918C13.8321 5.413 13.833 6.49325 13.833 8C13.833 9.50676 13.8321 10.587 13.7217 11.4082C13.6132 12.2151 13.4071 12.6974 13.0518 13.0527C12.6964 13.4081 12.2141 13.6142 11.4072 13.7227C10.586 13.833 9.50578 13.834 7.99902 13.834ZM4.6709 5.33301C5.03909 5.33301 5.33789 5.03421 5.33789 4.66602C5.33771 4.29798 5.03898 4 4.6709 4H4.66504C4.29705 4.00011 3.9992 4.29804 3.99902 4.66602C3.99902 5.03414 4.29694 5.3329 4.66504 5.33301H4.6709ZM4.66602 11.834C4.94205 11.834 5.16584 11.61 5.16602 11.334L5.16602 6.66699C5.16602 6.39085 4.94216 6.16699 4.66602 6.16699C4.38987 6.16699 4.16602 6.39085 4.16602 6.66699L4.16602 11.334C4.16619 11.61 4.38998 11.834 4.66602 11.834ZM11.332 11.834C11.6081 11.834 11.8319 11.61 11.832 11.334V8.66699C11.832 7.28628 10.7127 6.16699 9.33203 6.16699C8.76923 6.16699 8.24986 6.35315 7.83203 6.66699C7.83193 6.39093 7.60811 6.16699 7.33203 6.16699C7.05589 6.16699 6.83203 6.39085 6.83203 6.66699L6.83203 11.334C6.83221 11.61 7.056 11.834 7.33203 11.834C7.60807 11.834 7.83186 11.61 7.83203 11.334L7.83203 8.66699C7.83203 7.83857 8.5036 7.16699 9.33203 7.16699C10.1605 7.16699 10.832 7.83857 10.832 8.66699V11.334C10.8322 11.61 11.056 11.834 11.332 11.834Z" fill="white"/>
</svg>
