<svg width="12" height="12" viewBox="0 0 12 12" fill="none" xmlns="http://www.w3.org/2000/svg">
<path d="M5.97949 0C8.70931 0 10.0794 0.000472216 11.0186 0.939453C11.9583 1.87862 11.959 3.24891 11.959 5.97949C11.959 8.71008 11.9583 10.0813 11.0186 11.0205C10.0788 11.9587 8.70909 11.959 5.97949 11.959C3.2497 11.959 1.87959 11.9585 0.94043 11.0195C0.000679648 10.0804 0 8.71008 0 5.97949C0 3.24891 0.000679649 1.87764 0.94043 0.938477C1.87959 0.000282049 3.24987 0 5.97949 0ZM5.97949 0.875C3.49099 0.875 2.24226 0.87551 1.55859 1.55859C0.87551 2.24109 0.875 3.49041 0.875 5.97949C0.875 8.46858 0.87551 9.71789 1.55859 10.4004C2.20042 11.0422 3.34215 11.0807 5.54199 11.083L5.56836 7.58398H4.86035C4.61899 7.58389 4.42294 7.38785 4.42285 7.14648C4.42285 6.90505 4.61894 6.70908 4.86035 6.70898H5.5752L5.58984 4.75684C5.59573 3.9128 6.28936 3.22656 7.13574 3.22656H8.85254C9.09404 3.22656 9.29004 3.42256 9.29004 3.66406C9.28991 3.90545 9.09396 4.10156 8.85254 4.10156H7.13574C6.76824 4.10156 6.46718 4.39851 6.46484 4.76367L6.4502 6.70898H7.66211C7.90361 6.70898 8.09961 6.90498 8.09961 7.14648C8.09953 7.38791 7.90356 7.58398 7.66211 7.58398H6.44336L6.41699 11.083C8.61677 11.0807 9.75801 11.0422 10.4004 10.4004C11.0835 9.71789 11.084 8.46858 11.084 5.97949C11.084 3.49041 11.0835 2.24109 10.4004 1.55859C9.71731 0.875511 8.46799 0.875 5.97949 0.875Z" fill="white"/>
</svg>
