<svg width="12" height="12" viewBox="0 0 12 12" fill="none" xmlns="http://www.w3.org/2000/svg">
<path fill-rule="evenodd" clip-rule="evenodd" d="M2.65863 0.643284C2.94197 0.701846 3.16762 0.892216 3.30782 1.14373L3.75442 1.94495C3.91893 2.24005 4.05736 2.4884 4.14777 2.70428C4.24367 2.93329 4.30063 3.15912 4.27459 3.4088C4.24856 3.65848 4.14623 3.8677 4.00514 4.072C3.87214 4.26458 3.68544 4.47902 3.46359 4.73383L2.34966 6.01335C3.23308 7.46133 4.53755 8.76639 5.98703 9.65071L7.26655 8.53678C7.52136 8.31493 7.73579 8.12824 7.92838 7.99523C8.13267 7.85415 8.34189 7.75182 8.59157 7.72578C8.84125 7.69974 9.06709 7.7567 9.29609 7.85261C9.51198 7.94301 9.76032 8.08145 10.0554 8.24596L10.8566 8.69256C11.1082 8.83275 11.2985 9.0584 11.3571 9.34175C11.4163 9.62805 11.329 9.91582 11.1362 10.1523C10.4368 11.0105 9.31612 11.5569 8.14051 11.3198C7.41788 11.174 6.70488 10.9312 5.84253 10.4366C4.10985 9.44291 2.55631 7.88852 1.56378 6.15785C1.06922 5.2955 0.82636 4.5825 0.680588 3.85987C0.44344 2.68426 0.989857 1.56362 1.84804 0.864167C2.08456 0.671396 2.37233 0.58411 2.65863 0.643284ZM6.6856 10.0369C7.26878 10.3243 7.77602 10.4812 8.28881 10.5846C9.13684 10.7557 9.99297 10.3679 10.5548 9.6785C10.6286 9.58799 10.6291 9.5248 10.6226 9.49355C10.6155 9.45934 10.5869 9.40085 10.4915 9.34766L9.70823 8.91107C9.39041 8.73392 9.17883 8.61661 9.00639 8.54439C8.84271 8.47585 8.74878 8.46345 8.66936 8.47174C8.58995 8.48002 8.5006 8.51153 8.35458 8.61237C8.20075 8.7186 8.01792 8.87704 7.74349 9.11596L6.6856 10.0369ZM1.96343 5.31478L2.88442 4.25688C3.12333 3.98245 3.28177 3.79962 3.38801 3.6458C3.48885 3.49978 3.52036 3.41043 3.52864 3.33101C3.53692 3.25159 3.52453 3.15767 3.45598 2.99399C3.38377 2.82155 3.26646 2.60996 3.08931 2.29214L2.65272 1.50889C2.59953 1.41346 2.54103 1.38483 2.50683 1.37776C2.47558 1.3713 2.41239 1.37175 2.32187 1.44553C1.63248 2.00741 1.24471 2.86354 1.41578 3.71157C1.51922 4.22436 1.67606 4.73159 1.96343 5.31478Z" fill="white"/>
</svg>
