<svg width="12" height="12" viewBox="0 0 12 12" fill="none" xmlns="http://www.w3.org/2000/svg">
<path d="M4.53961 1.39396C5.52205 1.36896 6.47709 1.36896 7.45953 1.39396C9.07847 1.43496 9.97066 1.45785 10.6422 2.12833C11.3144 2.80576 11.3333 3.67424 11.3668 5.2504C11.3773 5.75382 11.3773 6.24308 11.3668 6.7465C11.3333 8.323 11.3141 9.19109 10.6431 9.86759C9.97064 10.5395 9.07847 10.5619 7.45953 10.6029C6.96867 10.6154 6.48394 10.6225 5.99957 10.6225C5.51519 10.6225 5.03049 10.6154 4.53961 10.6029C2.92081 10.5619 2.02845 10.539 1.35699 9.86857C0.684839 9.19115 0.666853 8.32258 0.633362 6.7465C0.622863 6.24305 0.622865 5.75385 0.633362 5.2504C0.666862 3.6739 0.685018 2.80581 1.35602 2.12931C2.02852 1.45732 2.92062 1.43496 4.53961 1.39396ZM7.44 2.14298C6.47066 2.11799 5.52802 2.11798 4.55817 2.14298C3.03935 2.18148 2.34674 2.19913 1.88727 2.65861C1.42828 3.12161 1.41338 3.79354 1.38239 5.26603C1.37189 5.75831 1.37189 6.23711 1.38239 6.72989C1.41338 8.20206 1.42805 8.8748 1.88824 9.33829C2.34674 9.79629 3.04014 9.81444 4.55914 9.85294C5.52858 9.87794 6.47104 9.87794 7.44098 9.85294C8.95995 9.81444 9.65336 9.79681 10.1129 9.33732C10.5714 8.87433 10.5858 8.20194 10.6168 6.72989C10.6273 6.23761 10.6273 5.75881 10.6168 5.26603C10.5858 3.79371 10.5712 3.12112 10.1109 2.65763C9.6524 2.19963 8.959 2.18148 7.44 2.14298ZM3.17731 4.05509C3.28285 3.87723 3.51304 3.81779 3.69098 3.92325L5.16168 4.79337C5.89759 5.22682 6.10167 5.22671 6.83844 4.79337L8.30914 3.92423C8.48764 3.81873 8.71781 3.87757 8.82281 4.05607C8.92817 4.23454 8.86942 4.46477 8.69098 4.56974L7.22028 5.43888C6.72978 5.72788 6.36457 5.87247 5.99957 5.87247C5.63514 5.87242 5.27073 5.72732 4.78082 5.43888L3.30914 4.56876C3.13126 4.46322 3.07184 4.23304 3.17731 4.05509Z" fill="white"/>
</svg>
